<svg xmlns="http://www.w3.org/2000/svg" viewBox="0 0 512 512" width="512" height="512">
  <path fill="#D4AF37" d="M112.5 177.5c-35.6 0-66.2 26.6-70.6 61.6L24.4 345.5c-1.3 10.3 6.7 19.5 17.1 19.5h29c9.5 0 17.2-7.7 17.2-17.2v-12.8h336.6v12.8c0 9.5 7.7 17.2 17.2 17.2h29c10.3 0 18.4-9.2 17.1-19.5l-17.5-106.4c-4.4-35-35-61.6-70.6-61.6H112.5zM48 395c-8.8 0-16 7.2-16 16s7.2 16 16 16h32c8.8 0 16-7.2 16-16s-7.2-16-16-16H48zm384 0c-8.8 0-16 7.2-16 16s7.2 16 16 16h32c8.8 0 16-7.2 16-16s-7.2-16-16-16h-32zM79.5 73.4C71.3 73.4 64 79.2 62.5 87.3L54.1 133c-1.8 9.6 5.6 18.5 15.4 18.5h371c9.8 0 17.2-8.9 15.4-18.5l-8.4-45.7c-1.5-8.1-8.8-13.9-17-13.9H79.5z"/>
</svg>
